<svg xmlns="http://www.w3.org/2000/svg" viewBox="0 0 1330.45 1304.2"><defs><style>.cls-1{fill:#039;}.cls-1,.cls-2,.cls-3,.cls-4,.cls-5{fill-rule:evenodd;}.cls-2{fill:#693;}.cls-3{fill:#f63;}.cls-4{fill:#639;}.cls-5{fill:#9a1900;}</style></defs><g id="Layer_2" data-name="Layer 2"><g id="Layer_1-2" data-name="Layer 1"><path class="cls-1" d="M898.93,63.92C777.23,227.35,830.05,351.66,990.75,445c-68.5,123.32-151.91,173.64-324.47,162.62,255.11,115,413.68-9.53,524.91-278C991.25,399.56,815,246.08,898.93,63.92Z"/><path class="cls-1" d="M1134.6,255.18c44.6-44.6,46.32-115.2,3.84-157.68s-113.08-40.76-157.69,3.84S934.45,216.53,976.93,259s113.08,40.76,157.67-3.83Z"/><path class="cls-2" d="M209.88,231.54c118,163.27,256.78,147,391.54,19,99.1,100.4,123.94,194.59,64.86,357.09C848.38,395.16,773.42,208,547,25.75,557.94,237.29,361.1,363.29,209.88,231.54ZM446.13,60.81C415.86,5.47,348.59-16,295.88,12.8S225,109.87,255.24,165.21s97.53,76.82,150.24,48,70.91-97.06,40.65-152.39Z"/><path class="cls-3" d="M190.12,958.39c199.51-83.92,211.73-219.62,114-375,121.56-71.58,219-72.67,362.12,24.3C504.7,379.17,304.87,406.15,72.88,581.2c207.8,41.07,281.92,262.72,117.24,377.19ZM86.59,677.64c-61,15.83-98.32,75.82-83.24,134s76.81,92.47,137.87,76.63,98.31-75.82,83.23-134-76.81-92.46-137.86-76.63Z"/><path class="cls-4" d="M858.51,1166.93C837.25,964.08,711,909.21,534.76,945.91c-31.94-137.4-3.83-230.67,131.52-338.27C399.93,693.48,365.9,892.23,463.52,1166c101.36-186,335-190.42,395,1Zm-291.42,17.62c-3.15,63,42.94,116.51,102.94,119.51s111.2-45.63,114.36-108.63-42.94-116.49-102.94-119.49-111.2,45.63-114.36,108.61Z"/><path class="cls-5" d="M1175.82,900.86c58.39,23.86,124.15-1.89,146.88-57.51s-6.2-120-64.59-143.9S1134,701.35,1111.25,757s6.19,120,64.57,143.9Zm81.85-289.2C1058.55,565.58,972.19,666,941.84,843.85,801.61,828.44,722.93,771,666.28,607.64,659,887.39,835.22,985.38,1125.83,984c-141.89-157.28-68.6-379.21,131.84-372.34Z"/></g></g></svg>